<svg width="1440" height="716" viewBox="0 0 1440 716" fill="none" xmlns="http://www.w3.org/2000/svg">
<g opacity="0.03">
<g clip-path="url(#clip0_224_131)">
<g clip-path="url(#clip1_224_131)">
<path d="M1585.5 1523C380.807 1523 -599 558.582 -599 -626.879C-599 -1812.34 380.807 -2776 1585.5 -2776C2790.19 -2776 3770 -1811.58 3770 -626.879C3770 557.825 2790.19 1522.24 1585.5 1522.24V1523ZM1585.5 -2663.21C443.654 -2663.21 -486.178 -1749.51 -486.178 -626.879C-486.178 495.752 442.897 1409.45 1585.5 1409.45C2728.1 1409.45 3657.18 495.752 3657.18 -626.879C3657.18 -1749.51 2728.1 -2663.21 1585.5 -2663.21Z" fill="#23201E"/>
<path fill-rule="evenodd" clip-rule="evenodd" d="M887.369 -1464.88C785.905 -1336.94 894.941 -1205.23 992.619 -1135.58C957.031 -1106.82 903.27 -1069.72 843.452 -1075.02C441.383 -1714.69 1506 -1767.68 1261.42 -1260.49C1244.76 -1232.48 1221.29 -1219.61 1192.52 -1215.82C1337.14 -1514.84 997.162 -1602.65 888.126 -1464.88M973.689 -1414.16C1079.7 -1484.56 1217.5 -1320.29 1070.61 -1199.93C968.388 -1237.02 924.471 -1329.37 973.689 -1414.16ZM1157.69 -111.362C1182.67 -131.801 1212.2 -130.287 1243.25 -118.932C1486.31 545.714 720.787 660.778 702.614 167.214C652.639 -93.1938 776.062 -308.939 997.162 -131.044C930.529 14.2999 859.353 225.503 997.162 301.203C1094.08 343.595 1202.36 301.96 1222.05 249.727C1268.24 125.579 1216.75 -27.335 1157.69 -110.605V-111.362ZM1414.37 -1228.69C1428 -1163.59 1447.69 -1106.06 1467.38 -1066.7C1583.99 -838.838 1705.89 -855.492 1791.46 -838.081L1789.19 -302.883L1430.28 -304.397C1251.58 -651.102 941.887 -919.08 896.455 -998.565C971.417 -998.565 1095.6 -1072.75 1115.28 -1108.33C1159.2 -1097.73 1213.72 -1096.22 1260.66 -1110.6C1322.75 -1131.04 1378.03 -1174.95 1415.13 -1228.69H1414.37ZM1809.63 -1140.88C1431.03 -1214.31 1444.66 -1697.28 1679.39 -1645.04C1550.67 -1538.31 1575.66 -1294.55 1755.87 -1308.18C1915.64 -1340.73 1890.65 -1501.21 1861.12 -1612.49C1886.86 -1623.09 1962.58 -1615.52 1986.81 -1603.41C1920.18 -1570.1 1816.44 -1184.79 1810.39 -1140.88H1809.63ZM2008.01 -1002.35C2017.86 -1238.53 2019.37 -1652.61 2344.96 -1630.66C2627.4 -1586 2667.53 -975.855 2359.35 -1022.79C2434.31 -1063.67 2605.44 -1404.32 2374.49 -1511.05C2324.52 -1533.76 2282.12 -1539.82 2229.11 -1517.11C2154.15 -1485.32 2132.95 -1407.35 2123.86 -1331.65C2095.85 -1227.94 2157.18 -1086.38 2199.58 -1043.23C2155.67 -1005.38 2082.22 -985.696 2008.01 -1001.59V-1002.35ZM1727.1 -1401.29C1686.96 -1474.72 1706.65 -1529.22 1758.9 -1581.45C1824.77 -1521.65 1810.39 -1446.71 1727.1 -1401.29ZM2288.93 -1104.55C2248.04 -1153.75 2227.6 -1209.77 2224.57 -1273.36C2220.03 -1373.28 2246.53 -1411.13 2285.9 -1424.76C2419.17 -1460.33 2397.21 -1160.56 2288.93 -1103.79V-1104.55ZM1781.61 -944.061C1642.29 -956.173 1560.51 -1091.68 1539.31 -1168.13C1602.92 -1125.74 1679.39 -1063.67 1792.97 -1046.26L1781.61 -944.061ZM2639.51 -23.5499C2629.67 160.401 2472.93 564.639 2177.62 413.239C2040.57 342.838 1982.27 -59.886 1978.48 -199.931L2129.16 -197.66C2114.02 -72.7548 2129.16 343.595 2409.33 303.474C2572.88 186.139 2460.06 -127.259 2277.57 -227.94C2332.09 -507.273 2683.43 -518.628 2639.51 -23.5499ZM2229.11 -143.913C2306.35 -115.904 2465.36 164.186 2369.19 207.335C2271.52 227.017 2225.33 -25.0639 2229.11 -143.913ZM1705.89 423.837C1743 381.445 1751.33 332.24 1746.03 314.072C1735.42 277.736 1682.42 267.895 1669.55 317.1C1664.25 336.025 1671.06 382.202 1705.89 423.837ZM2014.83 509.378C1936.08 581.293 1840.67 596.433 1703.62 532.845C1598.37 598.704 1489.34 564.639 1403.77 493.481C1132.7 774.327 724.573 775.841 567.834 366.305C542.846 268.652 533.003 172.513 473.942 114.224C297.516 -60.6429 87.0166 136.934 130.177 360.249C146.835 448.061 189.238 558.583 317.96 527.546C364.906 516.191 403.523 485.154 408.066 436.706C412.609 393.557 405.037 354.193 383.836 329.969C339.162 277.736 251.327 288.334 327.804 221.718C498.929 149.803 577.677 485.154 455.769 562.368C333.861 683.487 133.963 647.909 53.7002 489.696C-101.524 183.868 95.3458 -184.034 518.616 9.75798C670.812 -464.124 988.833 -336.948 1085.75 -208.258C1115.28 -230.211 1128.91 -237.781 1187.97 -243.08C1118.31 -517.871 948.701 -718.475 735.93 -900.155C465.613 -921.351 259.657 -909.996 124.876 -1051.56C25.6841 -1174.19 -25.0478 -1399.02 80.2019 -1554.96C152.135 -1662.45 382.322 -1804.01 517.102 -1631.42C673.084 -1431.57 409.581 -1258.97 292.216 -1367.22C323.261 -1476.99 332.347 -1399.78 447.44 -1470.18C461.827 -1716.96 114.276 -1626.12 130.177 -1327.1C143.049 -1079.56 367.935 -985.696 656.425 -992.509C617.808 -1036.42 474.699 -1337.7 636.738 -1556.47C861.624 -1859.27 1275.81 -1792.66 1419.68 -1576.16C1472.68 -1723.77 1613.52 -1809.31 1771.77 -1698.03C1889.13 -1765.41 2000.44 -1724.53 2065.56 -1686.68C2112.51 -1716.2 2143.55 -1741.18 2192.01 -1755.56C2605.44 -1844.13 2700.84 -1470.18 2711.45 -1286.98C3193.02 -963.743 3311.14 -1560.26 3068.08 -1638.23C3044.61 -1645.8 3012.81 -1650.34 2990.09 -1639.74C2914.37 -1604.92 2911.34 -1540.58 2916.64 -1481.53C2925.73 -1339.97 2778.08 -1338.46 2822.75 -1573.88C2872.73 -1855.49 3231.64 -1763.89 3279.34 -1529.22C3332.34 -1369.5 3249.05 -1212.8 3152.13 -1148.45C2980.25 -1034.9 2801.55 -1124.23 2686.46 -1190.09C2623.61 -805.53 2338.91 -892.585 2263.94 -961.472C2199.58 -923.622 2112.51 -887.286 1973.94 -902.426L1983.03 -314.995C1992.11 -311.21 2135.98 -305.154 2167.02 -289.257C2219.27 -405.078 2287.42 -548.908 2500.19 -541.338C2778.84 -530.74 2764.45 -243.837 2783.38 -21.279C2975.71 -109.848 3175.6 -128.016 3274.04 51.3929C3355.06 160.401 3305.08 621.414 2971.92 491.21C2899.23 463.201 2884.84 447.304 2850.01 385.23C2806.85 308.016 2778.84 208.092 2869.7 177.812C2922.7 170.999 2921.95 289.091 2946.18 342.081C3003.72 470.771 3121.09 421.566 3177.88 316.343C3270.25 145.261 3136.23 -96.222 2840.17 63.5049C2699.33 172.513 2801.55 402.641 2510.79 547.985C2348.75 628.984 2157.94 625.956 2012.56 508.621L2014.83 509.378ZM1456.02 407.94C1509.02 470.771 1588.53 496.509 1655.16 460.93C1521.9 369.333 1584.74 201.279 1696.81 192.195C1812.66 189.167 1887.62 324.67 1770.26 464.715C1834.62 499.537 1897.46 482.126 1942.14 431.407C1833.86 280.007 1833.86 52.907 1799.03 -172.679C1722.55 -177.221 1541.58 -178.735 1474.19 -168.894C1519.62 28.6829 1556.73 161.158 1456.02 408.697V407.94ZM1070.61 227.774C968.388 200.522 1030.48 2.94509 1083.48 -61.3999C1120.58 -24.3069 1140.27 34.739 1141.03 95.299C1141.79 186.896 1138.76 210.363 1071.37 227.774H1070.61Z" fill="#23201E"/>
</g>
</g>
</g>
<defs>
<clipPath id="clip0_224_131">
<rect width="1440" height="716" fill="white"/>
</clipPath>
<clipPath id="clip1_224_131">
<rect width="4369" height="4299" fill="white" transform="translate(-599 -2776)"/>
</clipPath>
</defs>
</svg>
