<svg width="58" height="57" viewBox="0 0 58 57" fill="none" xmlns="http://www.w3.org/2000/svg">
<path d="M28.85 56.79C12.94 56.79 0 44.05 0 28.4C0 12.75 12.94 0 28.85 0C44.76 0 57.7 12.74 57.7 28.39C57.7 44.04 44.76 56.78 28.85 56.78V56.79ZM28.85 1.49C13.76 1.49 1.49 13.56 1.49 28.39C1.49 43.22 13.76 55.29 28.85 55.29C43.94 55.29 56.21 43.22 56.21 28.39C56.21 13.56 43.94 1.49 28.85 1.49Z" fill="#E3C46F"/>
<path fill-rule="evenodd" clip-rule="evenodd" d="M19.6206 17.32C18.2806 19.01 19.7206 20.75 21.0106 21.67C20.5406 22.05 19.8306 22.54 19.0406 22.47C13.7306 14.02 27.7906 13.32 24.5606 20.02C24.3406 20.39 24.0306 20.56 23.6506 20.61C25.5606 16.66 21.0706 15.5 19.6306 17.32M20.7706 17.99C22.1706 17.06 23.9906 19.23 22.0506 20.82C20.7006 20.33 20.1206 19.11 20.7706 17.99ZM23.2006 35.2C23.5306 34.93 23.9206 34.95 24.3306 35.1C27.5406 43.88 17.4306 45.4 17.1906 38.88C16.5306 35.44 18.1606 32.59 21.0806 34.94C20.2006 36.86 19.2606 39.65 21.0806 40.65C22.3606 41.21 23.7906 40.66 24.0506 39.97C24.6606 38.33 23.9806 36.31 23.2006 35.21V35.2ZM26.5906 20.44C26.7706 21.3 27.0306 22.06 27.2906 22.58C28.8306 25.59 30.4406 25.37 31.5706 25.6L31.5406 32.67L26.8006 32.65C24.4406 28.07 20.3506 24.53 19.7506 23.48C20.7406 23.48 22.3806 22.5 22.6406 22.03C23.2206 22.17 23.9406 22.19 24.5606 22C25.3806 21.73 26.1106 21.15 26.6006 20.44H26.5906ZM31.8106 21.6C26.8106 20.63 26.9906 14.25 30.0906 14.94C28.3906 16.35 28.7206 19.57 31.1006 19.39C33.2106 18.96 32.8806 16.84 32.4906 15.37C32.8306 15.23 33.8306 15.33 34.1506 15.49C33.2706 15.93 31.9006 21.02 31.8206 21.6H31.8106ZM34.4306 23.43C34.5606 20.31 34.5806 14.84 38.8806 15.13C42.6106 15.72 43.1406 23.78 39.0706 23.16C40.0606 22.62 42.3206 18.12 39.2706 16.71C38.6106 16.41 38.0506 16.33 37.3506 16.63C36.3606 17.05 36.0806 18.08 35.9606 19.08C35.5906 20.45 36.4006 22.32 36.9606 22.89C36.3806 23.39 35.4106 23.65 34.4306 23.44V23.43ZM30.7106 18.16C30.1806 17.19 30.4406 16.47 31.1306 15.78C32.0006 16.57 31.8106 17.56 30.7106 18.16ZM38.1406 22.08C37.6006 21.43 37.3306 20.69 37.2906 19.85C37.2306 18.53 37.5806 18.03 38.1006 17.85C39.8606 17.38 39.5706 21.34 38.1406 22.09V22.08ZM31.4406 24.2C29.6006 24.04 28.5206 22.25 28.2406 21.24C29.0806 21.8 30.0906 22.62 31.5906 22.85L31.4406 24.2ZM42.7606 36.36C42.6306 38.79 40.5606 44.13 36.6606 42.13C34.8506 41.2 34.0806 35.88 34.0306 34.03L36.0206 34.06C35.8206 35.71 36.0206 41.21 39.7206 40.68C41.8806 39.13 40.3906 34.99 37.9806 33.66C38.7006 29.97 43.3406 29.82 42.7606 36.36ZM37.3506 34.77C38.3706 35.14 40.4706 38.84 39.2006 39.41C37.9106 39.67 37.3006 36.34 37.3506 34.77ZM30.4406 42.27C30.9306 41.71 31.0406 41.06 30.9706 40.82C30.8306 40.34 30.1306 40.21 29.9606 40.86C29.8906 41.11 29.9806 41.72 30.4406 42.27ZM34.5206 43.4C33.4806 44.35 32.2206 44.55 30.4106 43.71C29.0206 44.58 27.5806 44.13 26.4506 43.19C22.8706 46.9 17.4806 46.92 15.4106 41.51C15.0806 40.22 14.9506 38.95 14.1706 38.18C11.8406 35.87 9.06057 38.48 9.63057 41.43C9.85057 42.59 10.4106 44.05 12.1106 43.64C12.7306 43.49 13.2406 43.08 13.3006 42.44C13.3606 41.87 13.2606 41.35 12.9806 41.03C12.3906 40.34 11.2306 40.48 12.2406 39.6C14.5006 38.65 15.5406 43.08 13.9306 44.1C12.3206 45.7 9.68057 45.23 8.62057 43.14C6.57057 39.1 9.17057 34.24 14.7606 36.8C16.7706 30.54 20.9706 32.22 22.2506 33.92C22.6406 33.63 22.8206 33.53 23.6006 33.46C22.6806 29.83 20.4406 27.18 17.6306 24.78C14.0606 24.5 11.3406 24.65 9.56057 22.78C8.25057 21.16 7.58057 18.19 8.97057 16.13C9.92057 14.71 12.9606 12.84 14.7406 15.12C16.8006 17.76 13.3206 20.04 11.7706 18.61C12.1806 17.16 12.3006 18.18 13.8206 17.25C14.0106 13.99 9.42057 15.19 9.63057 19.14C9.80057 22.41 12.7706 23.65 16.5806 23.56C16.0706 22.98 14.1806 19 16.3206 16.11C19.2906 12.11 24.7606 12.99 26.6606 15.85C27.3606 13.9 29.2206 12.77 31.3106 14.24C32.8606 13.35 34.3306 13.89 35.1906 14.39C35.8106 14 36.2206 13.67 36.8606 13.48C42.3206 12.31 43.5806 17.25 43.7206 19.67C50.0806 23.94 51.6406 16.06 48.4306 15.03C48.1206 14.93 47.7006 14.87 47.4006 15.01C46.4006 15.47 46.3606 16.32 46.4306 17.1C46.5506 18.97 44.6006 18.99 45.1906 15.88C45.8506 12.16 50.5906 13.37 51.2206 16.47C51.9206 18.58 50.8206 20.65 49.5406 21.5C47.2706 23 44.9106 21.82 43.3906 20.95C42.5606 26.03 38.8006 24.88 37.8106 23.97C36.9606 24.47 35.8106 24.95 33.9806 24.75L34.1006 32.51C34.2206 32.56 36.1206 32.64 36.5306 32.85C37.2206 31.32 38.1206 29.42 40.9306 29.52C44.6106 29.66 44.4206 33.45 44.6706 36.39C47.2106 35.22 49.8506 34.98 51.1506 37.35C52.2206 38.79 51.5606 44.88 47.1606 43.16C46.2006 42.79 46.0106 42.58 45.5506 41.76C44.9806 40.74 44.6106 39.42 45.8106 39.02C46.5106 38.93 46.5006 40.49 46.8206 41.19C47.5806 42.89 49.1306 42.24 49.8806 40.85C51.1006 38.59 49.3306 35.4 45.4206 37.51C43.5606 38.95 44.9106 41.99 41.0706 43.91C38.9306 44.98 36.4106 44.94 34.4906 43.39L34.5206 43.4ZM27.1406 42.06C27.8406 42.89 28.8906 43.23 29.7706 42.76C28.0106 41.55 28.8406 39.33 30.3206 39.21C31.8506 39.17 32.8406 40.96 31.2906 42.81C32.1406 43.27 32.9706 43.04 33.5606 42.37C32.1306 40.37 32.1306 37.37 31.6706 34.39C30.6606 34.33 28.2706 34.31 27.3806 34.44C27.9806 37.05 28.4706 38.8 27.1406 42.07V42.06ZM22.0506 39.68C20.7006 39.32 21.5206 36.71 22.2206 35.86C22.7106 36.35 22.9706 37.13 22.9806 37.93C22.9906 39.14 22.9506 39.45 22.0606 39.68H22.0506Z" fill="#E3C46F"/>
</svg>
