<svg width="179" height="71" viewBox="0 0 179 71" fill="none" xmlns="http://www.w3.org/2000/svg">
<g clip-path="url(#clip0_224_173)">
<path fill-rule="evenodd" clip-rule="evenodd" d="M142.921 63.9757C143.51 62.128 145.891 61.0361 147.989 62.1738C149.412 63.7085 148.609 67.2589 146.519 67.6864C144.888 66.7091 145.416 65.6707 144.613 64.1055C143.947 64.1589 143.97 64.1819 143.426 64.3956C144.605 68.6256 147.101 71.1146 152.697 68.9615L151.962 62.5632C152.957 62.3952 156.417 62.2883 157.244 62.6624C156.7 63.9452 155.154 68.763 154.09 69.1906L159.869 68.8012C158.798 66.0296 157.917 70.4733 159.724 61.1812C161.599 51.5379 161.171 57.4934 162.595 54.3477L156.93 53.9659L157.588 60.6926C156.493 60.8758 153.232 61.0361 152.314 60.6315L155.077 54.1568L150.568 54.0728L150.209 62.2425C148.547 62.1738 148.524 58.4249 143.288 61.1736C143.051 57.9439 144.199 54.3019 140.418 53.7521C134.929 52.9504 138.267 57.104 133.482 57.0735L133.26 48.6213C137.493 46.1245 140.41 51.1027 142.224 44.0936C146.703 46.1474 151.257 44.9487 149.673 39.1765C147.522 31.3504 140.739 40.1232 144.521 41.2304L145.715 37.5425C150.576 36.9623 148.586 46.8499 143.556 43.4751C141.198 41.887 142.661 34.2441 136.138 35.817C133.046 36.5576 132.954 37.031 129.318 36.214C126.922 35.6719 125.949 37.031 125.567 39.459C124.472 46.5292 127.404 46.8804 130.198 49.5299L130.06 57.4781C124.702 57.7148 127.634 57.7301 126.363 55.8365C125.643 54.76 111.52 55.5464 111.52 55.554L111.037 64.472L106.628 55.3174L103.459 55.6686C102.425 57.0429 104.814 55.5922 103.987 59.1655C103.665 60.5551 103.267 61.8378 102.923 63.2733C102.601 64.5789 102.364 66.0601 101.943 67.4039C100.986 70.4733 100.06 68.2743 99.7383 70.5573L104.339 70.3206C104.714 69.1371 102.793 70.0457 103.995 65.5562C104.423 63.9528 104.683 61.5706 105.518 60.4024L109.92 71.023C111.458 70.3893 112.048 65.4646 112.66 63.0213C114.918 53.943 113.939 58.5012 115.96 56.2412L115.485 59.7992L119.312 56.4321L119.825 57.0124L117.092 68.1064C115.982 70.5344 115.462 68.2438 115.14 70.5954L120.629 70.3817C121.632 67.9842 119.267 71.191 119.848 67.5872C120.017 66.564 120.537 64.9225 120.775 63.9299C121.272 61.8989 121.693 58.57 122.665 57.0506C125.613 57.1193 124.219 57.8981 125.069 59.5854L130.374 59.0204C130.971 63.3038 131.086 68.5339 134.883 69.9083C140.954 72.0996 141.918 68.282 142.936 63.9986M130.512 44.6891C129.532 44.4142 129.065 44.063 128.414 43.4751C127.932 43.0475 127.182 42.452 126.991 41.887C126.707 41.07 126.853 39.6728 127.082 38.8405C127.404 37.6647 127.641 37.5273 128.874 37.4586C128.261 39.6346 127.45 40.4287 128.958 42.2687C130.504 42.5054 129.976 42.4978 131.17 41.8412C131.086 42.8414 130.964 43.9638 130.52 44.6815L130.512 44.6891ZM131.354 37.909L132.319 37.9777C132.602 38.6878 132.265 39.1536 131.829 39.9095L131.354 37.909ZM133.26 46.827C133.329 44.8189 133.467 42.7421 133.995 40.9631C134.6 38.9169 135.342 37.9014 137.846 38.0923C140.05 39.123 141.352 46.5979 138.022 46.7201C138.113 45.9031 138.075 46.2925 138.45 45.6893C142.102 39.8636 135.335 36.3744 134.761 42.0091C134.523 44.3226 135.358 44.6891 135.656 46.4529L133.26 46.8346V46.827ZM129.632 41.0166C129.119 39.94 129.394 39.7186 129.8 38.6267C130.229 39.0543 130.007 38.1457 130.374 39.3826C130.749 40.6501 129.746 40.9479 129.624 41.0089L129.632 41.0166ZM136.85 45.1778C136.315 44.4448 136.093 43.8034 136.054 42.8643C135.993 41.3602 136.376 41.1006 136.85 40.6424C139.162 41.2533 138.251 44.3608 136.85 45.1778ZM130.29 47.4454C128.897 47.8806 127.496 45.5672 127.213 44.4066C128.047 45.0022 129.019 45.9337 130.504 46.178L130.29 47.4454ZM138.374 65.8311C139.591 65.0981 139.882 63.09 139.185 61.3568C138.542 59.7611 136.781 58.9365 136.835 57.6766C136.95 54.9967 141.275 52.8664 140.908 60.9751C140.395 72.0614 133.811 70.4962 133.536 58.4936L134.829 58.5623C135.051 59.1808 134.791 67.3657 138.374 65.8311ZM137.922 64.4873C136.406 64.2048 136.238 61.7386 136.284 60.0054C137.547 60.5933 138.565 62.3189 137.922 64.4873Z" fill="#E3C46F"/>
<path fill-rule="evenodd" clip-rule="evenodd" d="M7.17996 38.6725C6.10824 42.2687 6.88141 42.6428 7.3254 45.9565C3.73514 46.0634 1.67591 44.6967 1.51516 41.0699C1.31612 36.6797 5.64127 35.3664 5.46521 38.9703C4.0337 40.001 3.91887 38.8786 3.52846 40.4744C4.92169 41.9556 6.48334 40.0468 6.96561 38.8863C6.1312 32.8163 0.497023 35.626 0.190818 40.169C-0.23787 46.5368 3.35239 46.972 8.17512 47.4301C9.38463 49.2091 15.5776 55.4471 14.215 57.4704C12.1175 57.9514 8.95595 52.6068 6.33024 60.6238C2.90839 58.7684 1.15536 59.7992 0.00709475 63.3725C-0.115387 66.5182 0.213783 67.8543 2.07398 69.6486C7.3943 69.8471 6.89672 63.716 3.9648 63.7389C3.68921 65.4187 6.40679 67.8085 2.73232 68.175C1.41564 67.1748 0.856815 64.8079 1.58405 62.8456C2.52563 60.2955 5.51879 61.1277 6.10824 62.6853C6.6441 64.1054 5.7561 71.1986 13.0055 70.8932C21.0664 67.9918 18.6397 63.571 18.5861 56.9741L23.5619 56.4549C24.3428 57.8904 22.1611 65.3882 21.4644 67.6024C20.4922 70.7252 19.8033 68.0681 19.3287 70.3052L29.5636 70.5954C29.9004 68.2666 27.933 70.6412 29.1272 65.915C29.5253 64.3498 29.8621 62.2959 30.5205 61.1506L32.3883 70.7405L38.321 61.1888C38.2368 62.9754 37.678 64.8995 37.2953 66.5105C36.3766 70.4198 35.1059 68.4957 34.8609 70.3052L45.7618 70.519V64.6704C46.1216 64.6704 55.4915 63.7084 53.1031 57.4399C51.7864 53.9811 43.8251 55.5158 40.143 55.2944L34.0495 65.1362L32.5797 55.3326L18.1345 55.2715L11.8802 45.4907C15.3786 44.1317 20.7066 42.4825 17.1699 36.9546C13.9012 31.839 9.46884 35.8627 7.1723 38.6801M14.8427 42.5588C15.3939 39.0466 14.6743 38.8939 12.0103 37.8402C13.8782 37.8173 15.1336 37.8861 15.7384 39.2528C16.3049 40.5202 15.9068 42.0244 14.8351 42.5588H14.8427ZM10.487 44.4829C9.54539 42.1312 8.85643 38.9474 11.6199 38.054C10.9233 39.0161 10.1272 39.2909 10.3262 41.0394C10.4717 42.3374 11.2601 42.6504 11.8879 43.895L10.487 44.4753V44.4829ZM11.995 39.772C13.9394 39.1993 14.238 41.0776 13.0132 42.6046C11.7348 42.0625 11.3826 41.0318 11.995 39.772ZM39.6913 69.2287C39.1861 67.7322 41.8041 58.0049 42.5696 56.9741C43.9399 56.1724 43.7562 56.4931 45.2949 56.7451C45.2413 58.5317 44.1389 62.2577 43.6567 64.1131C42.9218 66.9457 43.2356 69.9846 39.6913 69.2287ZM24.1897 69.2287C24.0519 68.9385 24.0442 69.0378 24.0059 68.4957C23.937 67.5107 26.0039 59.6159 26.3408 58.295C26.8383 56.3862 27.3895 56.3175 29.5942 56.6916C29.6095 58.463 28.4306 62.273 27.9636 64.1512C27.3589 66.5487 27.4431 70.1296 24.1897 69.2287ZM12.3012 64.8842C17.4072 65.2049 14.6054 59.4785 14.8274 58.9975C16.7106 59.5701 16.2207 68.6331 11.6123 67.2053C8.4354 66.228 8.0603 60.8528 8.84878 58.9288C9.65256 56.9818 11.4056 57.7071 12.2936 58.547C11.4745 60.6772 10.6707 62.7769 12.3012 64.8766V64.8842ZM46.6958 62.7845L48.0048 57.0199C50.4468 57.0047 51.0898 57.6766 50.309 60.1886C49.7425 62.021 48.778 62.6395 46.6958 62.7922V62.7845ZM13.0132 63.4412C12.3548 62.3417 12.6381 60.7841 13.3117 59.8373C13.7174 60.3107 13.9854 60.7841 14.0619 61.5629C14.2303 63.3037 13.817 63.0594 13.0055 63.4412H13.0132Z" fill="#E3C46F"/>
<path fill-rule="evenodd" clip-rule="evenodd" d="M58.439 57.7606C59.5184 55.6151 60.1232 57.4704 60.3758 55.4242L54.8717 55.3937C54.0679 58.0431 56.5176 54.8363 55.4995 59.0051C55.1397 60.494 54.8181 61.6164 54.443 63.1282C54.1062 64.4796 53.8153 65.999 53.4632 67.2741C52.5293 70.603 51.6719 68.1369 51.1973 70.4962L71.7513 70.5954L73.6651 66.3655C71.3379 65.3195 73.8029 68.9538 66.2702 68.9233C66.5688 66.564 67.7324 60.6467 70.7561 64.2505C71.1312 64.701 71.4298 67.8086 72.5092 63.7008C72.7924 62.6242 73.5426 60.6467 72.8154 59.8985L68.2223 62.4868C67.518 60.9979 68.4519 56.9818 70.7026 56.9818C76.176 56.9818 71.8508 59.4862 74.2545 58.9593C74.9435 58.8066 75.3186 56.5848 75.1272 55.325L65.344 55.5387C65.0837 58.1271 67.1276 54.8287 66.0712 58.9899C64.9535 63.4107 64.456 68.9309 61.9068 69.4043L63.1852 66.0677C60.4447 66.1822 62.7336 69.1294 55.7903 68.8851L58.439 57.7682V57.7606Z" fill="#E3C46F"/>
<path fill-rule="evenodd" clip-rule="evenodd" d="M88.0637 70.7403C88.6302 69.0987 88.0331 69.7096 87.1681 68.7933C87.413 66.6249 88.2321 63.9297 88.768 61.7995C90.2684 55.8516 89.4799 57.4016 91.7305 56.3174L91.7764 55.2332L87.8494 55.3248L81.6487 65.136L80.2478 55.2866L76.2212 55.5538C76.3513 59.654 78.7244 51.1865 75.9533 63.1738C73.6644 73.0538 73.3965 67.0983 72.7305 70.5189L77.27 70.4883C77.7522 68.3428 75.6853 70.6029 76.8719 65.8996C77.27 64.3191 77.6068 62.3263 78.2269 61.1581L79.5512 70.5494L86.1958 61.2726C86.0045 63.0058 85.4533 64.739 85.017 66.518C84.0524 70.4731 82.9118 68.4345 82.5826 70.496L88.0714 70.7327L88.0637 70.7403Z" fill="#E3C46F"/>
<path fill-rule="evenodd" clip-rule="evenodd" d="M92.2133 55.4011C92.3664 58.188 94.1118 54.8743 93.0018 59.0966C92.6803 60.3335 92.3435 61.7307 92.0449 62.9523C90.7665 68.1061 91.2488 69.03 88.8145 69.4194L88.8298 70.7174L98.7738 70.557C99.2943 69.3583 100.596 67.5564 100.481 66.2126C98.0006 66.1439 99.9756 69.4041 93.2008 68.8391L94.5711 63.5861L97.5949 63.6701C98.6666 65.1742 97.0897 64.7619 98.4982 65.556C99.7307 64.823 100.113 61.4253 100.274 60.0357C98.1154 59.8219 99.7919 60.5625 98.2609 61.8147L94.9309 61.8376L96.1328 56.9816L100.205 57.1801C101.124 58.7606 99.7996 58.5468 101.223 59.2569C102.073 58.5697 102.326 56.6151 102.226 55.3477L92.2286 55.4087L92.2133 55.4011Z" fill="#E3C46F"/>
<path fill-rule="evenodd" clip-rule="evenodd" d="M176.842 65.7851C175.334 65.1285 174.216 68.74 170.802 67.5031C168.834 66.793 168.942 63.3648 169.508 61.0131C170.021 58.8829 171.223 56.6763 172.823 55.867C176.979 53.7444 176.114 58.2568 177.63 59.3715C178.824 58.5011 178.916 55.3554 179.008 53.7138C177.11 53.8971 178.319 54.3399 176.834 54.2101C175.632 54.1032 173.795 52.7136 170.473 55.0347C165.742 58.3331 164.44 67.9001 169.883 69.2744C173.037 70.0685 177.339 67.4572 176.842 65.7928" fill="#E3C46F"/>
<path fill-rule="evenodd" clip-rule="evenodd" d="M162.779 54.34C163.781 57.1039 164.983 52.1334 163.008 61.7538C160.926 71.9086 161.623 65.5943 160.084 68.7935C160.467 69.3432 159.586 68.992 161.01 69.2134C162.442 69.2134 164.845 69.5875 165.787 68.8011C165.573 66.5716 163.98 69.7173 164.914 65.1896L166.491 57.0887C167.196 53.8819 168.061 56.516 168.558 54.34C167.731 53.7368 163.789 53.5383 162.771 54.34" fill="#E3C46F"/>
<path d="M82.6144 43.3605C70.435 43.3605 60.5293 33.6332 60.5293 21.6841C60.5293 9.73492 70.435 0 82.6144 0C94.7937 0 104.699 9.72728 104.699 21.6764C104.699 33.6256 94.7937 43.3528 82.6144 43.3528V43.3605ZM82.6144 1.13765C71.0628 1.13765 61.6699 10.3534 61.6699 21.6764C61.6699 32.9995 71.0628 42.2152 82.6144 42.2152C94.166 42.2152 103.559 32.9995 103.559 21.6764C103.559 10.3534 94.166 1.13765 82.6144 1.13765Z" fill="#E3C46F"/>
<path fill-rule="evenodd" clip-rule="evenodd" d="M75.5478 13.2242C74.522 14.5145 75.6243 15.843 76.6118 16.5455C76.252 16.8356 75.7085 17.2097 75.1038 17.1563C71.0389 10.7045 81.802 10.1701 79.3294 15.2857C79.161 15.5682 78.9237 15.698 78.6328 15.7362C80.0949 12.7202 76.6578 11.8345 75.5554 13.2242M76.4281 13.7357C77.4998 13.0256 78.8931 14.6825 77.408 15.8965C76.3745 15.5224 75.9305 14.5909 76.4281 13.7357ZM78.2883 26.876C78.5409 26.6698 78.8395 26.6851 79.1533 26.7996C81.6106 33.5033 73.8713 34.6639 73.6876 29.6857C73.1823 27.0592 74.4301 24.8832 76.6654 26.6774C75.9918 28.1434 75.2722 30.2736 76.6654 31.0372C77.6453 31.4647 78.74 31.0448 78.939 30.518C79.406 29.2658 78.8854 27.7235 78.2883 26.8836V26.876ZM80.8834 15.6064C81.0212 16.263 81.2202 16.8433 81.4192 17.2403C82.5981 19.5385 83.8306 19.3705 84.6956 19.5461L84.6727 24.9442L81.0441 24.929C79.2375 21.432 76.1066 18.7292 75.6473 17.9275C76.4051 17.9275 77.6606 17.1792 77.8596 16.8204C78.3036 16.9272 78.8548 16.9425 79.3294 16.7974C79.9571 16.5913 80.5159 16.1485 80.891 15.6064H80.8834ZM84.8794 16.492C81.0518 15.7514 81.1896 10.8801 83.5627 11.407C82.2613 12.4835 82.5139 14.9421 84.3359 14.8047C85.9511 14.4763 85.6985 12.8577 85.3999 11.7353C85.6602 11.6284 86.4257 11.7047 86.6707 11.8269C85.997 12.1629 84.9483 16.0492 84.887 16.492H84.8794ZM86.885 17.8893C86.9845 15.5071 86.9998 11.3306 90.2915 11.552C93.1469 12.0025 93.5526 18.1565 90.437 17.6831C91.1949 17.2708 92.9249 13.835 90.5901 12.7584C90.0849 12.5294 89.6562 12.4683 89.1203 12.6973C88.3625 13.018 88.1481 13.8044 88.0562 14.568C87.773 15.614 88.3931 17.0418 88.8218 17.477C88.3778 17.8587 87.6352 18.0573 86.885 17.8969V17.8893ZM84.0373 13.8655C83.6316 13.1249 83.8306 12.5752 84.3588 12.0483C85.0248 12.6515 84.8794 13.4074 84.0373 13.8655ZM89.7251 16.8585C89.3117 16.3622 89.105 15.7972 89.0744 15.1559C89.0285 14.148 89.2964 13.7663 89.6944 13.6288C91.0418 13.27 90.8198 16.2935 89.7251 16.8662V16.8585ZM84.5961 18.4772C83.1876 18.355 82.3608 16.9883 82.1465 16.2172C82.7895 16.6447 83.5627 17.2708 84.711 17.4464L84.5961 18.4772ZM93.2617 27.7616C93.1622 29.617 91.5776 33.6942 88.5921 32.1672C87.2065 31.4571 86.6171 27.3951 86.5788 25.9826L88.1022 26.0055C87.9491 27.2653 88.1022 31.4647 90.9346 31.0601C92.5881 29.8766 91.4475 26.7156 89.6026 25.7001C90.1538 22.8827 93.7057 22.7682 93.2617 27.7616ZM89.1203 26.5476C89.9011 26.8301 91.5087 29.6552 90.5365 30.0904C89.549 30.2889 89.082 27.7464 89.1203 26.5476ZM83.8306 32.2741C84.2057 31.8465 84.2899 31.3502 84.2363 31.1669C84.1292 30.8005 83.5933 30.7012 83.4632 31.1975C83.4096 31.3884 83.4785 31.8541 83.8306 32.2741ZM86.9539 33.1368C86.1578 33.8622 85.1932 34.0149 83.8077 33.3735C82.7436 34.0378 81.6412 33.6942 80.7762 32.9765C78.0357 35.8092 73.9096 35.8244 72.325 31.6938C72.0723 30.7088 71.9728 29.7392 71.3757 29.1512C69.5921 27.3875 67.4639 29.3803 67.9003 31.6327C68.0687 32.5184 68.4974 33.6331 69.7988 33.3201C70.2734 33.2056 70.6638 32.8925 70.7097 32.4039C70.7556 31.9686 70.6791 31.5716 70.4648 31.3273C70.0131 30.8005 69.1251 30.9074 69.8983 30.2355C71.6283 29.5101 72.4245 32.8925 71.192 33.6713C69.9595 34.8929 67.9386 34.5341 67.1271 32.9383C65.5578 29.8537 67.5481 26.143 71.8274 28.0976C73.366 23.3179 76.5812 24.6007 77.5611 25.8986C77.8596 25.6772 77.9974 25.6009 78.5945 25.5474C77.8902 22.7758 76.1755 20.7525 74.0244 18.92C71.2915 18.7063 69.2093 18.8208 67.8467 17.393C66.8439 16.1561 66.331 13.8884 67.395 12.3156C68.1223 11.2314 70.4494 9.80358 71.8121 11.5444C73.389 13.5601 70.725 15.3009 69.5385 14.2091C69.8523 13.102 69.9442 13.8808 71.1078 13.1707C71.2532 10.6816 67.7395 11.5979 67.9003 14.6138C68.0304 17.1105 70.304 18.0573 73.2206 17.9885C72.8302 17.5457 71.3834 14.5069 73.0216 12.3003C75.2951 9.24621 79.4825 9.91811 80.937 12.1018C81.4728 10.6129 82.8967 9.75013 84.4966 10.8725C85.6832 10.193 86.8085 10.6053 87.4668 10.987C87.9414 10.6893 88.2553 10.4373 88.7452 10.2922C92.9249 9.39891 93.8895 13.1707 93.9966 15.0184C98.8653 18.2787 100.059 12.2621 97.6022 11.4757C97.3649 11.3993 97.0434 11.3535 96.8137 11.4604C96.0482 11.8116 96.0176 12.4606 96.0712 13.0562C96.163 14.484 94.6703 14.4992 95.1219 12.1247C95.6272 9.28438 99.2557 10.2082 99.738 12.5752C100.274 14.1862 99.4318 15.7667 98.4519 16.4157C96.7142 17.561 94.9076 16.66 93.744 15.9957C93.1086 19.8744 90.2303 18.9964 89.4724 18.3016C88.8218 18.6833 87.9414 19.0498 86.5405 18.8971L86.6324 24.8221C86.7243 24.8602 88.1787 24.9213 88.4926 25.0817C89.0208 23.9135 89.7098 22.4628 91.8609 22.5391C94.6779 22.646 94.5325 25.5398 94.7239 27.7845C96.6683 26.8912 98.6892 26.708 99.6844 28.5175C100.503 29.617 99.9983 34.2669 96.63 32.9536C95.8951 32.6711 95.7497 32.5107 95.3975 31.8847C94.9612 31.1059 94.6779 30.098 95.5966 29.7926C96.1324 29.7239 96.1248 30.915 96.3697 31.4495C96.9515 32.7474 98.1381 32.2512 98.7122 31.1899C99.6461 29.4643 98.2912 27.0287 95.298 28.6397C93.8741 29.7392 94.9076 32.0603 91.968 33.5262C90.3298 34.3432 88.4007 34.3127 86.9309 33.1292L86.9539 33.1368ZM81.3044 32.1137C81.8403 32.7474 82.6441 33.007 83.3177 32.6482C81.9704 31.7243 82.6058 30.0293 83.7388 29.9377C84.91 29.9071 85.6678 31.2738 84.4813 32.6864C85.132 33.0376 85.7674 32.862 86.219 32.3504C85.1243 30.8234 85.1243 28.5328 84.7722 26.2575C83.999 26.2117 82.1694 26.1964 81.4881 26.2957C81.9475 28.2885 82.3226 29.6246 81.3044 32.1214V32.1137ZM77.408 30.2965C76.3745 30.0217 77.0022 28.0289 77.5381 27.3799C77.9132 27.754 78.1122 28.3496 78.1199 28.9604C78.1275 29.8842 78.0969 30.1209 77.4156 30.2965H77.408Z" fill="#E3C46F"/>
</g>
<defs>
<clipPath id="clip0_224_173">
<rect width="179" height="71" fill="white"/>
</clipPath>
</defs>
</svg>
