<?xml version="1.0" encoding="UTF-8"?>
<svg id="Camada_2" data-name="Camada 2" xmlns="http://www.w3.org/2000/svg" viewBox="0 0 312.16 100.74">
  <defs>
    <style>
      .cls-1 {
        fill: #a554f0;
      }

      .cls-1, .cls-2 {
        stroke-width: 0px;
      }

      .cls-2 {
        fill: #fff;
      }
    </style>
  </defs>
  <g id="Camada_2-2" data-name="Camada 2">
    <path class="cls-1" d="M53.98,31.51h-2.96s0,0,0,0c-10.36,0-18.75,8.4-18.75,18.76s8.37,18.73,18.71,18.76c0,0,.02,0,.02,0h9.73v-6.74h-9.71c-6.61-.22-11.91-5.66-11.91-12.32s5.29-12.07,11.9-12.3h2.96v8.11h6.9v-14.27h-6.9Z"/>
    <path class="cls-2" d="M93.14,42.38h0c0-6-4.87-10.87-10.87-10.87h-13.86v5.97h13.1c2.68,0,4.86,2.18,4.86,4.86v.04c0,2.68-2.18,4.86-4.86,4.86h-11.95s0,0,0,0h-1.16v21.79h6.03v-15.78h5.44l6.51,15.78h6.74l-7.03-16.49c4.11-1.55,7.03-5.51,7.03-10.16Z"/>
    <polygon class="cls-2" points="111.93 62.34 111.93 31.51 105.15 31.51 105.15 62.34 100.72 62.34 100.72 69.02 105.15 69.02 111.93 69.02 116.45 69.02 116.45 62.34 111.93 62.34"/>
    <polygon class="cls-2" points="199.61 62.34 199.61 31.51 192.84 31.51 192.84 62.34 188.41 62.34 188.41 69.02 192.84 69.02 199.61 69.02 204.13 69.02 204.13 62.34 199.61 62.34"/>
    <polygon class="cls-2" points="152.02 69.02 140.51 39.11 140.51 39.11 140.51 39.1 137.59 31.51 137.58 31.55 137.56 31.51 123.14 69.02 129.89 69.02 137.58 47.38 145.26 69.02 152.02 69.02"/>
    <polygon class="cls-2" points="210.81 31.38 222.32 61.29 222.32 61.29 222.32 61.3 225.24 68.89 225.25 68.85 225.27 68.89 237.37 37.48 230.77 37.48 225.25 53.02 217.57 31.38 210.81 31.38"/>
    <rect class="cls-1" x="159.1" y="31.51" width="22.54" height="5.97"/>
    <rect class="cls-2" x="167.47" y="45" width="6.67" height="24.02"/>
    <path class="cls-2" d="M262.21,31.38c-9.78,0-17.71,8.43-17.71,18.82s7.93,18.82,17.71,18.82,17.71-8.43,17.71-18.82-7.93-18.82-17.71-18.82ZM262.29,62.34c-6.42,0-11.62-5.57-11.62-12.43s5.2-12.43,11.62-12.43,11.62,5.57,11.62,12.43-5.2,12.43-11.62,12.43Z"/>
    <ellipse class="cls-1" cx="262.67" cy="50.24" rx="2.99" ry="3.01"/>
    <polygon class="cls-2" points="249.15 0 249.15 7.43 304.68 7.43 304.68 63.7 312.16 63.7 312.16 0 249.15 0"/>
    <polygon class="cls-2" points="0 37.74 7.43 37.74 7.43 93.26 63.7 93.26 63.7 100.74 0 100.74 0 37.74"/>
    <g>
      <path class="cls-2" d="M34.83,4.91c0,.59.17,1.08.51,1.46.34.38.79.7,1.34.95.56.25,1.17.48,1.84.69s1.34.43,2,.69c.67.25,1.28.57,1.84.94.56.37,1.01.85,1.34,1.45.34.59.51,1.34.51,2.23,0,1.2-.31,2.19-.93,2.97s-1.44,1.35-2.46,1.73c-1.02.37-2.15.56-3.39.56-.86,0-1.74-.09-2.64-.27s-1.78-.44-2.66-.8l.15-4.36h1.52l.48,3.17-.28-.48c.56.25,1.15.45,1.76.58.62.14,1.22.2,1.81.2.73,0,1.4-.11,2.02-.33s1.11-.55,1.48-.99c.37-.44.56-.99.56-1.65,0-.63-.17-1.13-.51-1.52-.34-.39-.79-.71-1.34-.96-.56-.25-1.17-.48-1.83-.68-.66-.2-1.32-.42-1.99-.66s-1.28-.54-1.84-.9c-.56-.36-1.01-.84-1.34-1.42s-.51-1.31-.51-2.19c0-1.13.27-2.07.82-2.8.55-.74,1.29-1.29,2.23-1.65.94-.36,1.99-.55,3.16-.55.83,0,1.69.09,2.58.27s1.76.44,2.63.8l-.23,4.13h-1.55l-.43-2.94.33.33c-.47-.2-.99-.36-1.55-.47-.56-.11-1.12-.17-1.67-.17-.66,0-1.28.09-1.85.27-.58.18-1.04.46-1.4.85-.36.39-.53.9-.53,1.55Z"/>
      <path class="cls-2" d="M53.27,1.9l-2.38.61.3-.41v14.74l-.3-.43,2.38.56v1.34h-6.75v-1.34l2.36-.53-.28.41V2.1l.36.43-2.44-.51V.68l6.75-.13v1.34Z"/>
      <path class="cls-2" d="M57.69,18.31v-1.34l2.89-.58-.48.69V2.02l.56.43h-4.64l.61-.53-.58,3.22h-1.55V.55h13.8v4.59h-1.55l-.56-3.12.58.43h-4.64l.56-.43v15.04l-.46-.69,2.87.58v1.34h-7.41Z"/>
      <path class="cls-2" d="M80.93,13.95h1.57l-.03,4.36h-12.94v-1.34l2.46-.58-.38.56V2l.36.53-2.44-.51V.68l4.62-.13h8.02v4.19h-1.55l-.48-2.66.51.38h-6.88l.43-.43v6.72l-.43-.43h6.52v1.85h-6.52l.43-.51v7.18l-.43-.43h7.2l-.53.43.48-2.89Z"/>
    </g>
  </g>
</svg>